<svg xmlns="http://www.w3.org/2000/svg" width="37" height="36" fill="none" viewBox="0 0 37 36"><ellipse cx="18.5" cy="18" fill="#151313" rx="18.5" ry="18"/><path fill="#DBD9D9" d="M10 27C9.45 27 8.979 26.804 8.587 26.412C8.195 26.02 7.99934 25.5493 8 25V12C8 11.45 8.196 10.979 8.588 10.587C8.98 10.195 9.45067 9.99934 10 10H28C28.55 10 29.021 10.196 29.413 10.588C29.805 10.98 30.0007 11.4507 30 12V25C30 25.55 29.804 26.021 29.412 26.413C29.02 26.805 28.5493 27.0007 28 27H10ZM10 25H28V12H10V25ZM16 16H18V14H16V16ZM12 16H14V14H12V16ZM15.5 23H22.5C22.6333 23 22.75 22.95 22.85 22.85C22.95 22.75 23 22.6333 23 22.5C23 22.3667 22.95 22.25 22.85 22.15C22.75 22.05 22.6333 22 22.5 22H15.5C15.3667 22 15.25 22.05 15.15 22.15C15.05 22.25 15 22.3667 15 22.5C15 22.6333 15.05 22.75 15.15 22.85C15.25 22.95 15.3667 23 15.5 23ZM20 16H22V14H20V16ZM16 20H18V18H16V20ZM12 20H14V18H12V20ZM20 20H22V18H20V20ZM24 16H26V14H24V16ZM24 20H26V18H24V20Z"/></svg>