<?xml version="1.0" encoding="iso-8859-1"?>
<!-- Uploaded to: SVG Repo, www.svgrepo.com, Generator: SVG Repo Mixer Tools -->
<svg version="1.1" id="Layer_1" xmlns="http://www.w3.org/2000/svg" xmlns:xlink="http://www.w3.org/1999/xlink" 
	 viewBox="0 0 512 512" xml:space="preserve">
<polygon style="fill:#84DCCF;" points="503.658,104.571 8.342,104.571 8.342,328.766 213.892,328.766 255.895,400.77 
	297.897,328.766 503.658,328.766 "/>
<g>
	<polygon style="fill:#027EA8;" points="159.889,328.583 135.888,328.583 415.904,104.569 439.905,104.569 	"/>
	<polyline style="fill:#027EA8;" points="400.424,104.571 8.342,104.571 8.342,328.766 111.576,328.766 	"/>
</g>
<path d="M255.894,415.771L209.4,336.066H0V96.229h512v239.837H302.389L255.894,415.771z M15.642,320.424h202.743l37.511,64.303
	l37.512-64.303h202.952V111.87H15.642V320.424z"/>
<g>
	<rect x="247.136" y="208.845" style="fill:#FFFFFF;" width="16.684" height="15.642"/>
	<rect x="200.212" y="208.845" style="fill:#FFFFFF;" width="15.642" height="15.642"/>
	<rect x="296.147" y="208.845" style="fill:#FFFFFF;" width="15.642" height="15.642"/>
</g>
</svg>